<?xml version="1.0" standalone="no"?>
<!DOCTYPE svg PUBLIC "-//W3C//DTD SVG 20010904//EN"
 "http://www.w3.org/TR/2001/REC-SVG-20010904/DTD/svg10.dtd">
<svg version="1.0" xmlns="http://www.w3.org/2000/svg"
 width="1024.000000pt" height="1024.000000pt" viewBox="0 0 1024.000000 1024.000000"
 preserveAspectRatio="xMidYMid meet">
<metadata>
Created by potrace 1.14, written by Peter Selinger 2001-2017
</metadata>
<g transform="translate(0.000000,1024.000000) scale(0.100000,-0.100000)"
fill="#000000" stroke="none">
<path d="M2360 10230 c-25 -4 -48 -6 -52 -3 -5 2 -13 1 -19 -3 -7 -4 -26 -8
-43 -10 -97 -9 -333 -73 -446 -122 -82 -35 -214 -103 -260 -132 -25 -17 -52
-33 -60 -37 -8 -4 -19 -11 -25 -15 -5 -5 -41 -32 -80 -61 -75 -55 -258 -234
-315 -306 -35 -44 -135 -190 -156 -227 -48 -85 -85 -160 -109 -219 -15 -38
-31 -79 -36 -90 -27 -64 -72 -231 -85 -318 -7 -47 -12 -72 -14 -72 -12 0 -15
-629 -15 -3485 0 -3055 2 -3471 19 -3520 3 -8 7 -33 10 -55 2 -22 7 -47 10
-55 3 -8 7 -28 10 -45 3 -16 14 -61 26 -100 12 -38 23 -74 24 -80 21 -73 153
-357 175 -375 7 -6 23 -32 47 -74 9 -16 27 -41 40 -55 13 -14 24 -29 24 -33 0
-10 39 -53 155 -171 110 -113 157 -155 201 -183 16 -10 31 -21 34 -25 3 -4 34
-25 70 -48 36 -22 71 -45 77 -51 7 -6 13 -8 13 -4 0 4 8 1 18 -8 20 -17 74
-42 85 -40 4 1 7 -1 7 -6 0 -4 15 -13 32 -21 18 -7 51 -21 73 -31 67 -30 233
-83 298 -96 10 -2 26 -5 35 -8 9 -3 35 -8 57 -11 22 -3 54 -9 70 -12 17 -3 41
-8 55 -11 53 -10 6835 -12 6878 -2 24 6 48 11 55 13 43 8 169 85 210 128 46
49 98 121 101 143 1 6 6 17 11 25 4 8 14 40 21 70 16 69 18 480 3 537 -24 86
-76 176 -143 247 -20 21 -36 47 -36 58 0 11 -3 18 -8 16 -4 -3 -7 9 -8 26 0
18 -4 57 -7 87 -12 99 -21 272 -21 407 -1 73 -4 133 -8 133 -4 0 -3 11 2 25 5
13 6 26 2 29 -8 5 -8 64 1 72 3 3 2 16 -3 29 -5 13 -6 26 -3 29 3 3 7 65 8
138 3 120 12 276 20 317 1 9 6 43 9 76 6 48 12 64 33 80 91 70 130 127 157
230 14 54 16 405 15 3470 -1 3469 0 3448 -32 3540 -40 113 -110 194 -212 245
-124 63 126 58 -3570 58 -1859 0 -3400 -4 -3425 -8z m2835 -1270 c3 6 15 6 29
0 13 -5 27 -6 30 -3 8 8 491 6 551 -2 63 -9 120 -36 166 -77 43 -39 79 -90 79
-111 0 -9 4 -17 9 -19 6 -1 12 -34 15 -72 4 -37 9 -72 12 -77 3 -5 1 -9 -5 -9
-6 0 -6 -11 -1 -30 5 -17 5 -30 0 -30 -5 0 -5 -13 0 -29 4 -15 4 -34 0 -42 -5
-7 -5 -20 0 -29 5 -9 5 -22 0 -30 -5 -8 -6 -18 -3 -23 8 -13 9 -97 1 -97 -4 0
-3 -13 2 -30 5 -18 5 -32 -1 -36 -5 -3 -6 -12 0 -21 5 -9 5 -29 1 -45 -5 -15
-5 -30 0 -33 5 -3 5 -16 0 -30 -6 -15 -6 -27 0 -30 5 -3 6 -13 3 -23 -4 -9 -6
-32 -5 -52 1 -19 2 -41 2 -47 0 -7 0 -20 0 -28 0 -8 0 -22 0 -30 0 -8 0 -22 0
-30 0 -8 0 -22 0 -30 0 -8 0 -22 0 -30 0 -8 0 -22 0 -30 0 -87 -1 -85 23 -76
12 5 32 5 45 0 14 -5 22 -5 22 2 0 6 7 6 19 -1 14 -7 22 -7 26 0 4 7 11 7 18
2 7 -5 21 -6 32 -2 11 4 30 4 43 -1 14 -5 22 -5 22 2 0 6 7 6 19 -1 14 -7 22
-7 26 0 4 7 11 7 18 2 7 -5 21 -6 32 -2 11 4 30 4 43 -1 14 -5 22 -5 22 2 0 6
7 6 19 -1 14 -7 22 -7 26 0 4 7 11 7 18 2 7 -5 21 -6 32 -2 11 4 30 4 43 -1
14 -5 22 -5 22 2 0 6 7 6 19 -1 14 -7 22 -7 26 0 4 7 11 7 18 2 7 -5 21 -6 32
-2 11 4 30 4 43 -1 14 -5 22 -5 22 2 0 6 7 6 19 -1 14 -7 22 -7 26 0 4 7 11 7
18 2 7 -5 21 -6 32 -2 11 4 30 4 43 -1 14 -5 22 -5 22 2 0 6 7 6 19 -1 14 -7
22 -7 26 0 4 6 11 8 16 4 6 -3 30 -8 54 -10 114 -9 225 -105 261 -224 12 -39
13 -59 13 -145 0 -44 0 -87 0 -95 0 -8 0 -44 0 -80 -2 -89 -2 -105 0 -185 0
-38 0 -77 0 -85 -1 -8 -1 -44 0 -80 1 -97 1 -100 -20 -165 -29 -88 -127 -185
-202 -199 -12 -3 -22 -5 -22 -6 0 -11 -694 -18 -712 -7 -5 3 -15 2 -23 -3 -8
-5 -21 -5 -30 0 -9 5 -22 5 -30 0 -8 -5 -21 -5 -30 0 -9 5 -22 5 -29 0 -8 -4
-27 -4 -42 0 -16 5 -29 5 -29 0 0 -5 -13 -5 -29 0 -15 4 -34 4 -41 0 -7 -5
-19 -6 -25 -4 -14 6 -27 -33 -14 -41 4 -3 4 -16 -1 -30 -6 -15 -6 -27 0 -30 5
-3 6 -15 1 -28 -5 -12 -5 -34 0 -49 4 -16 4 -28 -1 -28 -5 0 -5 -13 0 -30 5
-17 5 -30 0 -30 -5 0 -5 -13 0 -30 5 -17 5 -30 0 -30 -5 0 -5 -13 0 -30 5 -18
5 -30 0 -30 -6 0 -6 -10 0 -24 5 -13 6 -27 3 -30 -8 -8 -9 -76 -1 -76 4 0 3
-13 -2 -30 -5 -16 -5 -30 -1 -30 4 0 5 -22 1 -50 -3 -27 -3 -55 1 -62 4 -6 3
-20 -2 -29 -6 -11 -5 -20 1 -24 5 -3 6 -15 1 -28 -5 -12 -5 -34 0 -49 4 -16 4
-28 -1 -28 -5 0 -5 -13 0 -30 5 -17 5 -30 0 -30 -5 0 -5 -13 0 -30 5 -17 5
-30 0 -30 -5 0 -5 -13 0 -30 5 -18 5 -30 0 -30 -6 0 -6 -10 0 -24 5 -13 6 -27
3 -30 -8 -8 -9 -76 -1 -76 4 0 3 -13 -2 -30 -5 -16 -5 -30 -1 -30 4 0 5 -22 1
-50 -3 -27 -3 -55 1 -62 4 -6 3 -20 -2 -29 -6 -11 -5 -20 1 -24 5 -3 6 -15 1
-28 -5 -12 -5 -34 0 -49 4 -16 4 -28 -1 -28 -5 0 -5 -13 0 -30 5 -17 5 -30 0
-30 -5 0 -5 -13 0 -30 5 -17 5 -30 0 -30 -5 0 -5 -13 0 -30 5 -18 5 -30 0 -30
-6 0 -6 -10 0 -24 5 -13 6 -27 3 -30 -8 -8 -9 -76 -1 -76 4 0 3 -13 -2 -30 -5
-16 -5 -30 -1 -30 4 0 5 -22 1 -50 -3 -27 -3 -55 1 -62 4 -6 3 -20 -2 -29 -6
-11 -5 -20 1 -24 5 -3 6 -15 1 -28 -5 -12 -5 -34 0 -49 4 -16 4 -28 -1 -28 -5
0 -5 -13 0 -30 5 -17 5 -30 0 -30 -5 0 -5 -13 0 -29 4 -16 5 -32 2 -36 -4 -3
-7 -18 -8 -33 -1 -15 -2 -27 -3 -27 -2 0 -4 -10 -7 -22 -7 -37 -46 -96 -93
-140 -44 -41 -138 -82 -186 -83 -11 0 -28 0 -37 0 -10 0 -26 0 -35 0 -10 0
-111 0 -225 -1 -114 -1 -210 1 -215 4 -5 3 -15 2 -23 -3 -8 -5 -21 -5 -31 1
-12 6 -20 5 -24 -1 -4 -6 -10 -8 -15 -5 -5 3 -40 7 -78 9 -39 2 -76 7 -83 12
-8 5 -19 9 -26 10 -21 3 -76 45 -111 83 -41 45 -71 109 -76 162 -2 22 -6 43
-9 46 -3 3 -2 16 3 29 6 15 6 24 0 24 -6 0 -6 9 0 25 6 16 6 25 0 25 -6 0 -6
9 0 25 5 14 6 25 2 25 -4 0 -7 11 -7 25 0 14 3 25 7 25 4 0 3 11 -2 25 -6 15
-6 26 1 30 5 4 6 11 3 17 -10 17 -11 51 -2 71 6 11 5 17 -2 17 -8 0 -8 6 0 20
8 14 8 20 0 20 -8 0 -8 6 0 20 8 14 8 20 0 20 -8 0 -8 6 0 20 8 14 8 20 0 20
-8 0 -8 6 0 20 8 14 8 20 0 20 -8 0 -8 6 0 20 8 14 8 20 0 20 -8 0 -8 6 0 20
8 14 8 20 0 20 -6 0 -8 5 -5 11 9 13 12 79 5 79 -3 0 -5 16 -5 35 0 19 3 35 7
35 4 0 3 11 -2 25 -6 16 -6 25 0 25 6 0 6 9 0 25 -6 16 -6 25 0 25 6 0 6 9 0
25 -6 15 -6 26 1 30 5 4 7 11 3 16 -9 16 -11 69 -2 69 4 0 3 11 -2 25 -6 16
-6 25 0 25 6 0 6 9 0 25 -6 16 -6 25 0 25 6 0 6 9 0 25 -6 15 -6 26 1 30 6 4
6 13 0 23 -6 10 -6 23 0 34 5 10 6 18 2 18 -10 0 -8 63 2 79 3 6 1 11 -5 11
-8 0 -8 6 0 20 8 14 8 20 0 20 -8 0 -8 6 0 20 8 14 8 20 0 20 -8 0 -8 6 0 20
8 14 8 20 0 20 -8 0 -8 6 0 20 8 14 8 20 0 20 -8 0 -8 6 0 20 8 14 8 20 0 20
-8 0 -8 6 0 20 8 14 8 20 0 20 -6 0 -8 5 -5 11 9 13 12 79 5 79 -7 0 -5 54 3
66 3 6 2 16 -3 24 -5 9 -5 19 1 26 7 8 6 14 -1 19 -7 4 -7 12 0 25 6 12 7 21
0 25 -6 4 -6 15 0 30 5 14 6 25 2 25 -9 0 -8 58 1 66 3 4 2 15 -3 25 -7 12 -7
20 0 24 7 4 7 12 0 25 -6 11 -6 21 -1 25 6 3 6 17 1 35 -5 18 -5 30 0 30 6 0
6 10 0 25 -6 15 -6 26 0 30 6 4 7 13 1 23 -4 9 -6 22 -4 28 4 12 -42 26 -52
16 -10 -10 -35 -11 -40 -1 -3 4 -16 4 -30 -1 -15 -6 -27 -6 -30 0 -3 6 -15 6
-30 0 -15 -6 -27 -6 -30 0 -3 6 -15 6 -30 0 -15 -6 -27 -6 -30 0 -3 6 -15 6
-30 0 -15 -6 -27 -6 -30 0 -3 6 -15 6 -30 0 -15 -6 -27 -6 -30 0 -3 6 -15 6
-30 0 -15 -6 -27 -6 -30 0 -3 6 -15 6 -30 0 -15 -6 -27 -6 -30 0 -3 6 -15 6
-30 0 -15 -6 -27 -6 -30 0 -3 6 -15 6 -30 0 -15 -6 -27 -6 -30 0 -3 6 -15 6
-30 0 -15 -6 -27 -6 -30 0 -3 6 -15 6 -30 0 -14 -5 -27 -5 -30 0 -3 5 -18 5
-35 0 -17 -5 -30 -5 -30 0 0 5 -13 5 -30 0 -16 -5 -30 -5 -30 0 0 4 -16 4 -34
0 -19 -4 -36 -6 -38 -4 -2 1 -26 6 -53 10 -63 8 -120 34 -166 76 -43 39 -79
90 -79 111 0 9 -4 17 -10 19 -5 2 -12 39 -15 82 -3 44 -8 82 -10 86 -2 3 0 12
5 19 4 8 4 27 0 42 -5 16 -5 31 0 34 5 3 5 18 0 34 -4 15 -4 34 0 41 4 6 4 27
0 46 -4 19 -4 36 0 39 5 3 5 18 1 33 -5 15 -5 36 -1 47 4 11 4 31 0 45 -4 14
-4 34 0 45 4 11 4 29 0 40 -4 11 -4 29 0 41 5 11 5 27 0 34 -4 7 -4 25 0 41 5
15 6 30 3 33 -3 2 5 33 16 68 38 112 153 208 256 211 25 1 45 6 45 10 0 4 8 4
17 -2 11 -6 24 -6 35 0 10 6 19 5 23 -1 4 -7 12 -7 25 0 13 7 21 7 25 0 4 -7
13 -7 26 0 13 8 19 7 19 0 0 -6 4 -8 10 -5 16 10 90 11 90 2 0 -4 5 -5 11 -2
14 9 117 10 126 2 3 -4 12 -2 19 4 8 7 14 7 19 -1 4 -6 12 -7 24 -1 10 6 23 6
31 1 8 -5 21 -5 31 1 11 6 20 5 24 -1 4 -7 12 -7 25 0 10 6 21 6 24 2 6 -9 59
-7 75 3 6 3 11 2 11 -4 0 -7 8 -7 25 -1 15 6 26 6 30 0 4 -7 13 -6 25 0 12 6
21 7 25 0 4 -6 15 -6 30 0 14 5 25 6 25 2 0 -9 53 -7 69 3 6 3 11 2 11 -4 0
-20 28 1 33 24 2 14 1 23 -2 21 -8 -5 -5 59 4 73 3 6 2 11 -4 11 -7 0 -7 8 -1
25 6 15 6 26 0 30 -7 4 -6 13 0 25 6 12 7 21 0 25 -6 4 -6 15 0 30 5 14 6 25
2 25 -9 0 -8 58 1 66 3 4 2 15 -3 25 -7 12 -7 20 0 24 7 4 7 12 0 25 -6 11 -6
21 -1 25 6 3 6 17 1 35 -5 18 -5 30 0 30 6 0 6 10 0 25 -6 15 -6 26 0 30 6 4
7 14 2 23 -9 19 -8 54 2 71 4 6 2 11 -4 11 -8 0 -8 6 0 20 8 14 8 20 0 20 -8
0 -8 6 0 20 8 14 8 20 0 20 -8 0 -8 6 0 20 8 14 8 20 0 20 -8 0 -8 6 0 20 8
14 8 20 0 20 -8 0 -8 6 0 20 8 14 8 20 0 20 -8 0 -8 6 0 20 8 14 8 20 0 20 -6
0 -8 5 -5 10 3 6 8 34 10 63 7 105 76 206 174 253 39 19 42 20 111 30 25 3 47
8 49 9 1 2 14 0 27 -5 14 -6 26 -6 29 0z m-2590 -6400 c4 7 12 7 23 1 10 -6
23 -6 34 0 10 6 19 5 23 -1 4 -7 13 -7 26 0 10 6 19 7 19 3 0 -4 11 -8 25 -8
14 0 25 2 25 5 0 7 165 4 185 -3 8 -4 15 -2 15 4 0 6 6 6 18 0 10 -5 24 -6 32
-1 8 5 21 5 31 -1 11 -6 20 -5 24 1 4 7 12 7 23 1 10 -6 23 -6 34 0 10 6 19 5
23 -1 4 -7 13 -7 26 0 10 6 19 7 19 3 0 -4 11 -8 25 -8 14 0 25 2 25 5 0 7
165 4 185 -3 8 -4 15 -2 15 4 0 6 6 6 18 0 10 -5 24 -6 32 -1 8 5 21 5 31 -1
11 -6 20 -5 24 1 4 7 12 7 23 1 10 -6 23 -6 34 0 10 6 19 5 23 -1 4 -7 13 -7
26 0 10 6 19 7 19 3 0 -4 11 -8 25 -8 14 0 25 2 25 5 0 7 165 4 185 -3 8 -4
15 -2 15 4 0 6 6 6 18 0 10 -5 24 -6 32 -1 8 5 21 5 31 -1 11 -6 20 -5 24 1 4
7 12 7 23 1 10 -6 23 -6 34 0 10 6 19 5 23 -1 4 -7 13 -7 26 0 10 6 19 7 19 3
0 -4 11 -8 25 -8 14 0 25 2 25 5 0 7 165 4 185 -3 8 -4 15 -2 15 4 0 6 6 6 18
0 10 -5 24 -6 32 -1 8 5 21 5 31 -1 11 -6 20 -5 24 1 4 7 12 7 23 1 10 -6 23
-6 34 0 10 6 19 5 23 -1 4 -7 13 -7 26 0 10 6 19 7 19 3 0 -4 11 -8 25 -8 14
0 25 2 25 5 0 7 91 2 98 -5 2 -2 13 0 23 5 12 7 20 7 24 0 4 -7 13 -7 26 0 10
6 19 7 19 3 0 -4 11 -8 25 -8 14 0 25 2 25 5 0 7 78 3 97 -4 7 -3 13 -1 13 4
0 6 9 6 23 2 22 -9 75 -7 84 2 3 3 16 1 29 -4 16 -6 24 -6 24 1 0 6 7 6 19 -1
14 -7 22 -7 26 0 4 7 11 7 18 2 7 -5 21 -6 32 -2 11 4 30 4 43 -1 14 -5 22 -5
22 2 0 6 7 6 19 -1 14 -7 22 -7 26 0 4 7 11 7 18 2 7 -5 21 -6 32 -2 11 4 30
4 43 -1 14 -5 22 -5 22 2 0 6 7 6 19 -1 14 -7 22 -7 26 0 4 7 11 7 18 2 7 -5
21 -6 32 -2 11 4 30 4 43 -1 14 -5 22 -5 22 2 0 6 7 6 19 -1 14 -7 22 -7 26 0
4 7 11 7 18 2 7 -5 21 -6 32 -2 11 4 30 4 43 -1 14 -5 22 -5 22 2 0 6 7 6 19
-1 14 -7 22 -7 26 0 4 7 11 7 18 2 7 -5 21 -6 32 -2 11 4 30 4 43 -1 14 -5 22
-5 22 2 0 6 7 6 19 -1 14 -7 22 -7 26 0 4 7 11 7 18 2 7 -5 21 -6 32 -2 11 4
30 4 43 -1 14 -5 22 -5 22 2 0 6 7 6 19 -1 14 -7 22 -7 26 0 4 7 11 7 18 2 7
-5 21 -6 32 -2 11 4 30 4 43 -1 14 -5 22 -5 22 2 0 6 7 6 19 -1 14 -7 22 -7
26 0 4 7 11 7 18 2 7 -5 21 -6 32 -2 11 4 30 4 43 -1 14 -5 22 -5 22 2 0 6 7
6 19 -1 14 -7 22 -7 26 0 4 7 11 7 18 2 7 -5 21 -6 32 -2 11 4 30 4 43 -1 14
-5 22 -5 22 2 0 6 7 6 19 -1 14 -7 22 -7 26 0 4 7 11 7 18 2 7 -5 21 -6 32 -2
11 4 30 4 43 -1 14 -5 22 -5 22 2 0 6 7 6 19 -1 14 -7 22 -7 26 0 4 7 11 7 18
2 7 -5 21 -6 32 -2 11 4 30 4 43 -1 14 -5 22 -5 22 2 0 6 7 6 19 -1 14 -7 22
-7 26 0 4 7 11 7 18 2 7 -5 21 -6 32 -2 11 4 30 4 43 -1 14 -5 22 -5 22 2 0 6
7 6 19 -1 14 -7 22 -7 26 0 4 7 11 7 18 2 7 -5 21 -6 32 -2 11 4 30 4 43 -1
14 -5 22 -5 22 2 0 6 7 6 19 -1 14 -7 22 -7 26 0 4 7 11 7 18 2 7 -5 21 -6 32
-2 11 4 30 4 43 -1 14 -5 22 -5 22 2 0 6 7 6 19 -1 14 -7 22 -7 26 0 4 7 11 7
18 2 7 -5 21 -6 32 -2 11 4 30 4 43 -1 14 -5 22 -5 22 2 0 6 7 6 19 -1 12 -6
22 -6 26 -1 5 9 42 7 53 -3 2 -3 13 -1 23 5 13 6 19 6 19 0 0 -7 9 -7 25 -1
17 6 25 6 25 -1 0 -6 5 -7 10 -4 14 9 145 9 159 1 6 -4 11 -2 11 4 0 7 6 8 19
0 14 -7 22 -7 27 1 4 7 10 7 16 1 6 -6 22 -7 39 -2 17 5 29 5 29 0 0 -6 10 -6
25 0 15 6 25 6 25 0 0 -5 12 -5 28 -1 39 10 59 3 65 -22 2 -12 4 -298 3 -636
l-1 -615 -27 -7 c-16 -4 -28 -4 -28 1 0 4 -16 4 -35 0 -19 -4 -37 -4 -40 1 -3
4 -16 4 -29 -1 -12 -4 -29 -5 -36 0 -7 5 -24 4 -36 0 -14 -6 -26 -5 -29 0 -3
6 -15 6 -30 0 -15 -6 -25 -6 -25 0 0 5 -12 5 -30 0 -16 -5 -30 -5 -30 0 0 4
-16 4 -35 0 -19 -4 -37 -4 -40 1 -3 4 -16 4 -29 -1 -12 -4 -29 -5 -36 0 -7 4
-20 6 -27 3 -24 -9 -56 -10 -80 -1 -12 4 -25 3 -28 -2 -3 -6 -15 -6 -29 0 -13
5 -26 6 -30 3 -7 -7 -1335 -7 -1342 0 -4 3 -17 2 -30 -3 -14 -6 -26 -6 -29 0
-3 6 -15 6 -30 0 -15 -6 -27 -6 -30 0 -3 6 -15 6 -30 0 -15 -6 -27 -6 -30 0
-3 6 -15 6 -30 0 -15 -6 -27 -6 -30 0 -3 6 -15 6 -30 0 -15 -6 -27 -6 -30 0
-3 6 -15 6 -30 0 -15 -6 -27 -6 -30 0 -3 6 -15 6 -30 0 -15 -6 -27 -6 -30 0
-3 6 -15 6 -30 0 -15 -6 -27 -6 -30 0 -3 6 -15 6 -30 0 -15 -6 -27 -6 -30 0
-3 6 -15 6 -30 0 -15 -6 -27 -6 -30 0 -3 6 -15 6 -30 0 -15 -6 -27 -6 -30 0
-3 6 -15 6 -30 0 -15 -6 -27 -6 -30 0 -3 6 -15 6 -30 0 -15 -6 -27 -6 -30 0
-3 6 -15 6 -30 0 -15 -6 -27 -6 -30 0 -3 6 -15 6 -30 0 -15 -6 -27 -6 -30 0
-3 6 -15 6 -30 0 -15 -6 -27 -6 -30 0 -3 6 -15 6 -29 0 -13 -5 -27 -6 -30 -3
-8 8 -102 7 -116 -2 -5 -3 -10 -2 -10 4 0 6 -11 6 -30 1 -17 -5 -30 -5 -30 0
0 4 -16 4 -35 0 -19 -4 -37 -4 -40 1 -3 4 -16 4 -29 -1 -12 -4 -29 -5 -36 0
-7 5 -24 4 -36 0 -14 -6 -26 -5 -29 0 -3 6 -15 6 -30 0 -15 -6 -25 -6 -25 0 0
5 -12 5 -30 0 -17 -5 -30 -5 -30 0 0 4 -16 4 -35 0 -19 -4 -37 -4 -40 1 -3 4
-16 4 -29 -1 -12 -4 -29 -5 -36 0 -7 5 -24 4 -36 0 -14 -6 -26 -5 -29 0 -3 6
-15 6 -30 0 -15 -6 -25 -6 -25 0 0 5 -12 5 -30 0 -16 -5 -30 -5 -30 0 0 4 -16
4 -35 0 -19 -4 -37 -4 -40 1 -3 4 -16 4 -29 -1 -12 -4 -29 -5 -36 0 -7 5 -24
4 -36 0 -14 -6 -26 -5 -29 0 -3 6 -15 6 -30 0 -15 -6 -25 -6 -25 0 0 5 -12 5
-30 0 -16 -5 -30 -5 -30 0 0 4 -16 4 -35 0 -19 -4 -37 -4 -40 1 -3 4 -16 4
-29 -1 -12 -4 -29 -5 -36 0 -7 5 -23 5 -34 1 -23 -8 -56 -7 -80 2 -8 3 -18 2
-21 -3 -3 -6 -15 -6 -30 0 -15 6 -27 6 -30 0 -3 -6 -15 -6 -30 0 -15 6 -27 6
-30 0 -3 -6 -15 -6 -30 0 -15 6 -27 6 -30 0 -3 -6 -15 -6 -30 0 -15 6 -27 6
-30 0 -3 -6 -15 -6 -30 0 -15 6 -27 6 -30 0 -3 -6 -15 -6 -30 0 -15 6 -27 6
-30 0 -3 -6 -15 -6 -30 0 -15 6 -27 6 -30 0 -3 -6 -15 -6 -30 0 -15 6 -27 6
-30 0 -3 -6 -15 -6 -30 0 -15 6 -27 6 -30 0 -3 -6 -15 -6 -30 0 -15 6 -27 6
-30 0 -3 -6 -15 -6 -30 0 -15 6 -27 6 -30 0 -3 -6 -15 -6 -30 0 -15 6 -27 6
-30 0 -3 -6 -15 -6 -30 0 -15 6 -27 6 -30 0 -3 -6 -15 -6 -30 0 -15 6 -27 6
-30 0 -3 -6 -15 -6 -30 0 -15 6 -27 6 -30 0 -3 -6 -15 -6 -30 0 -15 6 -27 6
-30 0 -3 -6 -15 -6 -30 0 -15 6 -27 6 -30 0 -3 -6 -15 -6 -30 0 -15 6 -27 6
-30 0 -3 -6 -15 -6 -30 0 -15 6 -27 6 -30 0 -3 -5 -15 -6 -29 0 -12 4 -29 4
-36 0 -8 -5 -19 -6 -24 -3 -5 4 -33 8 -60 10 -46 2 -91 9 -91 13 0 1 -8 3 -17
5 -173 33 -357 200 -408 370 -6 22 -14 47 -17 55 -8 20 -16 87 -17 133 -1 20
-4 37 -8 37 -4 0 -3 13 2 29 4 15 4 34 0 42 -5 7 -6 18 -2 24 3 5 7 15 8 20 8
39 12 55 22 91 49 171 179 317 352 396 64 29 90 38 128 43 15 2 27 4 27 5 0 1
22 3 48 5 27 2 51 6 54 9 3 3 14 1 24 -4 12 -7 20 -7 24 0z"/>
</g>
</svg>
